<?xml version="1.0" encoding="utf-8"?>
<!-- Generator: Adobe Illustrator 26.0.3, SVG Export Plug-In . SVG Version: 6.00 Build 0)  -->
<svg version="1.1" id="レイヤー_1" xmlns:serif="http://www.serif.com/"
	 xmlns="http://www.w3.org/2000/svg" xmlns:xlink="http://www.w3.org/1999/xlink" x="0px" y="0px" viewBox="0 0 152.7 150"
	 style="enable-background:new 0 0 152.7 150;" xml:space="preserve">
<style type="text/css">
	.st0{fill:#0B4889;}
</style>
<g>
	<g>
		<path class="st0" d="M32.5,127.7c-6.6-6.3-6.8-13-7.5-19.2c-1.4-12.3-1.3-24.7-0.2-37.1c0.8-9.2,6.5-16,12.1-22.5
			c13-15.2,29.8-24.7,48.6-30.2c11.2-3.3,23.1-1,35.7,1C88.2,35.4,53,46.3,32.7,79C48.2,66.4,65,55.7,82.4,45.8
			c11.9-6.8,24.1-8.4,38.1-5.1c-8.6,4.1-16.5,7.7-24.4,11.6c-14.2,7-28,14.9-41,24C37.7,88.2,27.1,103.4,32.5,127.7z"/>
		<path class="st0" d="M127.2,62.9c-16.3,9-32.7,17.6-48.4,27.5c-10.5,6.6-21,13.2-30,21.8c-2.8,2.6-6.8,5.6-4,10
			c2.5,4,6.9,2.8,10.9,1.8c11.2-2.9,21.3-8.7,30.2-15.4c14.1-10.7,29.4-8.8,45.2-7.9c-21.2,14.8-41.2,31.7-68.6,33.5
			c-1.5,0.1-3,0.2-4.5,0.1c-8-0.4-16.1-1.1-20.2-9.7c-4.3-9-2.1-17.3,3.2-25.2c2.4-3.5,5.5-6.4,9-8.8c8.5-6,17.4-11.4,25.4-18
			C91,59.7,109.1,62.1,127.2,62.9z"/>
	</g>
</g>
</svg>
