<?xml version="1.0" encoding="utf-8"?>
<!-- Generator: Adobe Illustrator 26.0.3, SVG Export Plug-In . SVG Version: 6.00 Build 0)  -->
<svg version="1.1" id="レイヤー_1" xmlns:serif="http://www.serif.com/"
	 xmlns="http://www.w3.org/2000/svg" xmlns:xlink="http://www.w3.org/1999/xlink" x="0px" y="0px" viewBox="0 0 152.7 150"
	 style="enable-background:new 0 0 152.7 150;" xml:space="preserve">
<style type="text/css">
	.st0{fill:#2F439B;}
</style>
<g transform="matrix(4.16667,0,0,4.16667,0,0)">
	<path class="st0" d="M33.7,15.8c-0.8-6.3-5.3-11.3-11.3-13l-4.1,4.1c5.3,0,9.6,3.7,10.7,8.6c-4.3,0.5-8.1,2.8-10.7,6.1
		c-2.5-3.3-6.3-5.6-10.7-6.1c1-4.9,5.3-8.6,10.6-8.6l-4.1-4.1C8.2,4.4,3.7,9.5,2.9,15.8c-0.1,0.7-0.2,1.4-0.2,2
		c0,0.9,0.1,1.9,0.3,2.7c0.9-0.3,1.9-0.4,2.9-0.4c0.6,0,1.3,0.1,1.9,0.2c3.6,0.6,6.7,3,8.1,6.4c0.3,0.6,0.5,1.3,0.7,1.9
		c0.2,0.8,0.3,1.6,0.3,2.5c0,0.8-0.1,1.5-0.3,2.2v0.1h3.6v-0.1c-0.2-0.7-0.3-1.4-0.3-2.2c0-0.8,0.1-1.7,0.3-2.5
		c0.2-0.7,0.3-1.3,0.6-1.9c1.4-3.3,4.5-5.7,8.1-6.4c0.6-0.1,1.2-0.2,1.9-0.2c1,0,1.9,0.2,2.9,0.4c0.2-0.8,0.3-1.8,0.3-2.7
		C33.7,17.1,33.7,16.4,33.7,15.8z"/>
</g>
</svg>
